<?xml version="1.0" encoding="utf-8"?>
<!-- Generator: Adobe Illustrator 18.0.0, SVG Export Plug-In . SVG Version: 6.00 Build 0)  -->
<!DOCTYPE svg PUBLIC "-//W3C//DTD SVG 1.1//EN" "http://www.w3.org/Graphics/SVG/1.1/DTD/svg11.dtd">
<svg version="1.1" id="Layer_1" xmlns="http://www.w3.org/2000/svg" xmlns:xlink="http://www.w3.org/1999/xlink" x="0px" y="0px"
	 viewBox="0 0 680 280" enable-background="new 0 0 680 280" xml:space="preserve" width="350px" height="60">
<g>
	<g>
		<path fill="#AB47BC" d="M245.9,198.6c-6.1,0-11-4.9-11-11V92.1c0-6.1,4.9-11,11-11s11,4.9,11,11v95.6
			C256.9,193.7,251.9,198.6,245.9,198.6z"/>
	</g>
	<g>
		<path fill="#3F51B5" d="M286,103h-80.2c-6.1,0-11-4.9-11-11c0-6.1,4.9-11,11-11H286c6.1,0,11,4.9,11,11
			C296.9,98.1,292,103,286,103z"/>
	</g>
</g>
<g>
	<g>
		<path fill="#42A5F5" d="M136.6,198.6c-3.2,0-6.3-1.4-8.5-4L49.8,99c-3.8-4.7-3.2-11.6,1.5-15.5c4.7-3.8,11.6-3.2,15.5,1.5
			l78.4,95.6c3.8,4.7,3.2,11.6-1.5,15.5C141.6,197.8,139.1,198.6,136.6,198.6z"/>
	</g>
	<g>
		<path fill="#AB47BC" d="M58.3,198.6c-2.5,0-4.9-0.8-7-2.5c-4.7-3.8-5.4-10.8-1.5-15.5l78.4-95.6c3.8-4.7,10.8-5.4,15.5-1.5
			c4.7,3.8,5.4,10.8,1.5,15.5l-78.4,95.6C64.6,197.2,61.4,198.6,58.3,198.6z"/>
	</g>
</g>
<g>
	<g>
		<path fill="#3F51B5" d="M419.8,170.8c-6.1,0-11-4.9-11-11V93c0-6.1,4.9-11,11-11c6.1,0,11,4.9,11,11v66.8
			C430.8,165.9,425.8,170.8,419.8,170.8z"/>
	</g>
	<g>
		<path fill="#AB47BC" d="M385.7,201.3c-11.7,0-22.8-5.6-33-16.5c-4.1-4.4-3.9-11.4,0.6-15.5c4.4-4.1,11.4-3.9,15.5,0.6
			c5.9,6.4,11.4,9.5,16.9,9.5c6.1,0,11,4.9,11,11S391.8,201.3,385.7,201.3z"/>
	</g>
	<g>
		<path fill="#42A5F5" d="M390.1,201.3c-6.1,0-11-4.9-11-11s4.9-11,11-11c12.9,0,18.7-6,18.7-19.6c0-6.1,4.9-11,11-11
			c6.1,0,11,4.9,11,11C430.8,185.4,415.2,201.3,390.1,201.3z"/>
	</g>
</g>
<path fill="#26A69A" d="M171,81.1c-6.1,0-11,4.9-11,11v95.6c0,6.1,4.9,11,11,11c6.1,0,11-4.9,11-11V92.1C182,86,177.1,81.1,171,81.1
	z M171,98.7c-3.5,0-6.3-2.8-6.3-6.3s2.8-6.3,6.3-6.3c3.5,0,6.3,2.8,6.3,6.3S174.5,98.7,171,98.7z"/>
<path fill="#26A69A" d="M321,81.1c-6.1,0-11,4.9-11,11v95.6c0,6.1,4.9,11,11,11c6.1,0,11-4.9,11-11V92.1C332,86,327.1,81.1,321,81.1
	z M321.3,98.7c-3.5,0-6.3-2.8-6.3-6.3s2.8-6.3,6.3-6.3c3.5,0,6.3,2.8,6.3,6.3S324.8,98.7,321.3,98.7z"/>
<g>
	<g>
		<path fill="#AB47BC" d="M454.7,95.6c-1.4,0-2.8-0.3-4.2-0.9c-5.4-2.3-8-8.6-5.6-14.1c0.4-1,0.6-4.3,0.5-6.2
			c-0.4-5.9,4.1-11,10-11.4c5.9-0.4,11,4.1,11.4,10c0.1,2.2,0.4,10-2.2,16C462.8,93.2,458.9,95.6,454.7,95.6z"/>
	</g>
	<g>
		<path fill="#26A69A" d="M457.1,80.5c-5.9,0-10.7-4.8-10.7-10.7v-2.1c0-5.9,4.8-10.7,10.7-10.7s10.7,4.8,10.7,10.7v2.1
			C467.8,75.7,463,80.5,457.1,80.5z"/>
	</g>
</g>
<g>
	<g>
		<path fill="#E91E63" d="M637.3,166.3c-6,0-10.9-4.9-10.9-10.9c0-10.6-7.8-16.7-21.5-16.7c-11.6,0-21.5,7.6-21.5,16.7
			c0,6-4.9,10.9-10.9,10.9c-6,0-10.9-4.9-10.9-10.9c0-21.2,19.4-38.4,43.2-38.4c13,0,23.9,3.8,31.7,11.1
			c7.4,6.9,11.5,16.6,11.5,27.3C648.2,161.4,643.3,166.3,637.3,166.3z"/>
	</g>
	<g>
		<path fill="#FAA61A" d="M605,193.3c-23.8,0-43.2-17-43.2-37.9c0-6,4.9-10.9,10.9-10.9c6,0,10.9,4.9,10.9,10.9
			c0,8.7,9.8,16.1,21.5,16.1c6,0,10.9,4.9,10.9,10.9C615.9,188.4,611,193.3,605,193.3z"/>
	</g>
	<g>
		<path fill="#4CAF50" d="M605,193.3c-6,0-10.9-4.9-10.9-10.9c0-6,4.9-10.9,10.9-10.9c11.6,0,21.5-7.4,21.5-16.1
			c0-6,4.9-10.9,10.9-10.9s10.9,4.9,10.9,10.9C648.2,176.3,628.8,193.3,605,193.3z"/>
	</g>
	<g>
		<path fill="#CDDC39" d="M572.6,166.2c-5.1,0-9.6-3.6-10.7-8.7c-3-14.7-3.5-27.9-1.6-39.2c1.8-10.5,5.7-19.5,11.6-26.8
			c9-11,22.8-17.6,36.8-17.6c11.6,0,22.8,3.9,30.8,10.8c4.6,3.9,5.1,10.8,1.2,15.4c-3.9,4.6-10.8,5.1-15.4,1.2
			c-4-3.4-10.4-5.5-16.6-5.5c-2.8,0-12.7,0.7-20,9.6c-8,9.8-10,26.4-5.6,47.9c1.2,5.9-2.6,11.6-8.5,12.8
			C574,166.1,573.3,166.2,572.6,166.2z"/>
	</g>
</g>
<g>
	<g>
		<g>
			<path fill="#E91E63" d="M536.3,193.3c-6.2,0-11.2-5-11.2-11.2v-97c0-6.2,5-11.2,11.2-11.2s11.2,5,11.2,11.2v97
				C547.5,188.3,542.5,193.3,536.3,193.3z"/>
		</g>
	</g>
	<g>
		<g>
			<path fill="#4CAF50" d="M511.2,104.4c-4.7,0-9.1-3-10.6-7.7c-1.9-5.9,1.3-12.2,7.2-14.1l25.2-8.2c5.9-1.9,12.2,1.3,14.1,7.2
				c1.9,5.9-1.3,12.2-7.2,14.1l-25.2,8.2C513.5,104.2,512.3,104.4,511.2,104.4z"/>
		</g>
	</g>
</g>
</svg>
